<?xml version="1.0" encoding="UTF-8" standalone="no"?>
<svg
   xmlns:dc="http://purl.org/dc/elements/1.1/"
   xmlns:cc="http://creativecommons.org/ns#"
   xmlns:rdf="http://www.w3.org/1999/02/22-rdf-syntax-ns#"
   xmlns:svg="http://www.w3.org/2000/svg"
   xmlns="http://www.w3.org/2000/svg"
   id="svg53"
   version="1.1"
   viewBox="0 0 149.67903 149.69237"
   height="149.69237mm"
   width="149.67903mm">
  <defs
     id="defs47" />
  <metadata
     id="metadata50">
    <rdf:RDF>
      <cc:Work
         rdf:about="">
        <dc:format>image/svg+xml</dc:format>
        <dc:type
           rdf:resource="http://purl.org/dc/dcmitype/StillImage" />
        <dc:title></dc:title>
      </cc:Work>
    </rdf:RDF>
  </metadata>
  <g
     transform="translate(-34.017628,-44.882988)"
     id="layer1">
    <path
       style="fill:#27fdcd;stroke-width:0.07483929"
       d="M 34.017858,119.73592 V 44.896631 h 74.839282 74.83928 v 74.839289 74.83929 H 108.85714 34.017858 Z"
       id="path37" />
    <path
       style="fill:#2bfdb1;stroke-width:0.07483929"
       d="m 34.017858,129.69756 c 0,-59.090908 0.0106,-64.881717 0.11838,-64.923092 0.0651,-0.02499 2.27052,-0.04543 4.90091,-0.04543 h 4.78253 l 0.038,-4.883264 c 0.0209,-2.685795 0.0557,-7.148087 0.0774,-9.916205 l 0.0395,-5.032942 h 34.91632 c 30.392092,0 34.930372,0.01405 35.024782,0.108451 0.0926,0.0926 0.10776,0.826653 0.10377,5.023556 -0.003,2.703307 0.009,4.929175 0.0266,4.946372 0.0172,0.0172 2.18085,0.02916 4.8081,0.02658 3.69361,-0.0036 4.79009,-0.02556 4.83529,-0.09672 0.0322,-0.05062 0.059,-2.269905 0.0596,-4.931753 7.9e-4,-2.661847 0.0216,-4.892993 0.0466,-4.958102 0.0411,-0.107126 0.99145,-0.11838 9.99639,-0.11838 8.52437,0 9.96628,0.01533 10.05786,0.106913 0.0904,0.09043 0.10692,0.846041 0.10692,4.901973 v 4.79506 h 4.82713 4.82714 v -4.79506 c 0,-4.055932 0.0165,-4.811539 0.10691,-4.901973 0.0919,-0.09194 2.19814,-0.106913 15.0427,-0.106913 h 14.93578 v 64.877659 c 0,59.0909 -0.0106,64.88171 -0.11838,64.92308 -0.0651,0.025 -2.30468,0.0454 -4.97681,0.0454 h -4.85843 v 4.86455 4.86456 h 4.85843 c 2.67213,0 4.9117,0.0204 4.97681,0.0454 0.10632,0.0408 0.11838,0.55567 0.11838,5.05165 v 5.00623 h -34.94199 c -32.41111,0 -34.94536,-0.009 -34.98934,-0.12356 -0.0261,-0.068 -0.0446,-2.29086 -0.0413,-4.93978 0.003,-2.64892 -0.0145,-4.84972 -0.0398,-4.89067 -0.0717,-0.11592 -9.56028,-0.10087 -9.6765,0.0154 -0.068,0.068 -0.0898,1.2576 -0.0898,4.89585 0,2.64333 -0.0204,4.85932 -0.0454,4.92443 -0.0413,0.10771 -3.19062,0.11838 -34.949941,0.11838 H 34.017858 Z m 39.8145,49.90979 v -4.86455 h -4.86455 -4.86456 v 4.86455 4.86456 h 4.86456 4.86455 z M 103.899,167.20817 c -0.0114,-1.35102 -0.0208,-0.26737 -0.0208,2.40814 -1e-5,2.6755 0.009,3.78089 0.0208,2.45642 0.0114,-1.32448 0.0114,-3.51353 1e-5,-4.86456 z m -0.13094,-7.47065 v -4.97681 h -4.901966 -4.90197 v 4.92692 c 0,2.70981 0.0224,4.94937 0.0499,4.97681 0.0274,0.0274 2.23333,0.0499 4.90197,0.0499 h 4.852076 z m -19.944662,-0.0374 v -4.90197 h -4.90197 -4.90197 l -0.02069,4.75229 c -0.0114,2.61377 -0.0021,4.82832 0.02029,4.92123 l 0.0409,0.16893 4.8817,-0.0193 4.8817,-0.0192 z m 79.816092,-0.0748 v -4.93939 l -2.56324,4e-5 c -1.40979,3e-5 -5.87208,0.0224 -9.91621,0.0498 l -7.35296,0.0497 v 4.88962 4.88963 h 9.91621 9.9162 z m -49.81972,-24.98065 c 0.10901,-0.12044 0.12208,-0.62211 0.12918,-4.95216 0.007,-4.20362 -0.006,-4.82613 -0.10402,-4.88076 -0.0615,-0.0344 -2.31191,-0.054 -5.00082,-0.0434 l -4.88895,0.0193 -0.0192,4.99552 -0.0192,4.99552 h 4.89091 c 4.6053,0 4.89799,-0.008 5.01218,-0.13401 z m 39.79126,-4.95506 v -4.86455 l -4.54649,7.9e-4 c -2.50057,7.9e-4 -4.67278,0.0217 -4.82713,0.0472 l -0.28065,0.0464 v 4.81734 4.81734 h 4.82713 4.82714 z M 53.775428,119.7734 v -4.90197 h -4.82713 -4.82714 v 4.85208 c 0,2.66865 0.0224,4.87454 0.0499,4.90197 0.0274,0.0275 2.19965,0.0499 4.82714,0.0499 h 4.77724 z m 89.938642,-10.04561 0.0193,-4.8817 -0.16895,-0.0409 c -0.0929,-0.0225 -2.32429,-0.0316 -4.95863,-0.0203 l -4.78971,0.0207 -0.0192,4.92121 -0.0192,4.92122 4.95864,-0.0192 4.95863,-0.0192 z m -10.02847,-9.917773 -0.0192,-4.9581 -4.81231,-0.0193 c -3.23216,-0.0129 -4.86019,0.006 -4.95811,0.0588 -0.14216,0.0761 -0.14579,0.19739 -0.14579,4.88756 0,3.640963 0.0218,4.831353 0.0898,4.899343 0.068,0.068 1.27571,0.0898 4.97734,0.0898 h 4.88755 z m -49.862202,-0.0561 v -4.90197 h -4.90197 -4.90197 l -0.01939,4.82713 c -0.01069,2.654933 -0.003,4.869483 0.01659,4.921233 0.0285,0.0745 1.052779,0.0901 4.921358,0.0748 l 4.885412,-0.0192 z m 79.797932,0.0187 -0.0193,-4.84584 h -4.86455 -4.86456 l -0.0192,4.84584 -0.0193,4.845853 h 4.90307 4.90306 z m -9.97288,-19.9634 v -4.864552 l -4.7523,-0.02066 c -2.61376,-0.01135 -4.82807,-0.0024 -4.92068,0.02013 l -0.16839,0.04079 v 4.813236 c 0,2.647278 0.0227,4.83593 0.0504,4.863666 0.0277,0.02774 2.24205,0.04177 4.92068,0.03118 l 4.87026,-0.01926 z m -29.97314,0 v -4.827132 h -4.82713 -4.82713 v 4.827132 4.827135 h 4.82713 4.82713 z m -19.79499,-9.953635 v -4.864554 l -4.920676,-0.01925 -4.92068,-0.01925 v 4.90305 4.903048 l 4.92068,-0.01926 4.920676,-0.01924 z m 59.68433,0.187098 v -4.640036 h -0.1871 c -0.14967,0 -0.18709,-0.03742 -0.18709,-0.187098 v -0.187098 h -4.64004 -4.64004 v 4.827134 4.827133 h 4.82714 4.82713 z M 93.739604,59.827068 v -4.901973 h -4.86455 -4.864556 v 4.85208 c 0,2.668645 0.02241,4.874533 0.0499,4.901973 0.0274,0.02744 2.216492,0.04989 4.864556,0.04989 h 4.81466 z"
       id="path35" />
    <path
       style="fill:#0cf8ac;stroke-width:0.07483929"
       d="m 34.017858,189.56898 c 0,-4.49598 0.0121,-5.01085 0.11838,-5.05165 0.0651,-0.025 2.28784,-0.0454 4.93939,-0.0454 h 4.82102 v -4.90198 -4.90197 h -4.9394 -4.93939 v -29.96515 c 0,-27.66805 0.009,-29.96872 0.12238,-30.01209 0.0673,-0.0258 2.31529,-0.0448 4.99552,-0.0422 l 4.87314,0.005 0.0193,-4.8407 c 0.014,-3.51331 -0.004,-4.86864 -0.0653,-4.94258 -0.0698,-0.0841 -0.94689,-0.10188 -5.01478,-0.10188 h -4.93023 V 84.793979 c 0,-18.144714 0.0108,-19.978244 0.11838,-20.019511 0.0651,-0.02499 2.27052,-0.04543 4.90091,-0.04543 h 4.78253 l 0.038,-4.883264 c 0.0209,-2.685795 0.0557,-7.148087 0.0774,-9.916205 l 0.0395,-5.032942 h 5.00467 c 4.49458,0 5.00931,0.01207 5.05011,0.11838 0.025,0.06511 0.0454,2.287836 0.0454,4.939393 v 4.821013 h 4.93498 c 3.20925,0 4.95115,0.02617 4.981231,0.07484 0.0301,0.04866 1.758619,0.07484 4.94117,0.07484 4.796859,0 4.896509,-0.003 4.973989,-0.147734 0.0538,-0.10055 0.0726,-1.70205 0.0588,-5.014248 l -0.02029,-4.866513 h 4.93939 4.9394 l -0.02029,4.87526 c -0.0177,4.250935 -0.006,4.897409 0.093,5.0482 0.0977,0.149148 0.115962,0.840055 0.132569,5.02225 l 0.01929,4.849312 4.845837,0.01926 4.84584,0.01926 v -4.848445 c 0,-4.218575 0.0148,-4.869562 0.11385,-5.01098 0.0996,-0.142199 0.1113,-0.776245 0.0936,-5.068319 l -0.0203,-4.905786 9.964326,1.5e-5 c 9.01711,1.4e-5 9.96864,0.01127 10.00975,0.118395 0.025,0.06511 0.0454,2.26456 0.0454,4.887669 0,3.698066 -0.021,4.797705 -0.0935,4.895801 -0.0859,0.116209 -0.49271,0.128038 -4.99552,0.145272 l -4.90198,0.01876 -0.0192,4.920683 -0.0192,4.920683 h 9.90178 c 7.60159,0 9.92264,-0.02086 9.99158,-0.08981 0.068,-0.068 0.0898,-1.266809 0.0898,-4.937281 v -4.847472 l 4.82094,-0.02082 c 2.65151,-0.01145 4.84291,-0.04281 4.86976,-0.06969 0.0268,-0.02688 0.0454,-2.225635 0.0411,-4.88613 -0.007,-4.150825 0.008,-4.852787 0.1017,-4.946656 0.16242,-0.162429 9.95412,-0.164828 10.11646,-0.0025 0.0904,0.09043 0.10692,0.846041 0.10692,4.901973 v 4.79506 h 4.82713 4.82714 v -4.795063 c 0,-4.055932 0.0165,-4.811539 0.10691,-4.901973 0.0919,-0.09194 2.19814,-0.106913 15.0427,-0.106913 h 14.93578 V 59.86447 c 0,8.232321 -0.008,14.975672 -0.0187,14.985221 -0.0103,0.0096 -2.24143,0.03481 -4.95809,0.05613 l -4.9394,0.03877 v 4.864553 4.864552 l 4.9394,0.03877 c 2.71666,0.02133 4.9478,0.04658 4.95809,0.05613 0.0103,0.0096 0.0187,11.245271 0.0187,24.968254 0,22.68292 -0.0108,24.95504 -0.11838,24.99632 -0.0651,0.025 -2.28784,0.0454 -4.93939,0.0454 h -4.82102 v 4.90197 4.90198 h 4.82102 c 2.65155,0 4.87428,0.0204 4.93939,0.0454 0.1074,0.0412 0.11838,1.43126 0.11839,14.98658 l 2e-5,14.94114 -4.9207,-0.0121 c -2.70638,-0.007 -4.8365,0.0153 -4.7336,0.0487 0.10291,0.0334 2.28915,0.0641 4.85832,0.0682 2.56917,0.004 4.65425,0.0244 4.63351,0.0452 -0.0207,0.0207 -4.45521,0.0377 -9.85438,0.0377 h -9.81668 l 0.0192,4.84556 0.0193,4.84557 9.72911,0.017 c 5.35101,0.009 9.80488,0.0353 9.89749,0.0576 l 0.16839,0.0405 v 5.01281 5.0128 h -34.94995 c -27.90048,0 -34.95356,-0.0189 -34.9679,-0.0936 -0.01,-0.0514 -0.0183,-6.76173 -0.0187,-14.91174 l -7.9e-4,-14.81817 h -4.93939 -4.9394 l 0.0303,14.74334 c 0.0167,8.10884 0.006,14.81911 -0.0238,14.91173 l -0.0541,0.16838 H 68.925467 34.017988 Z m 39.871171,-9.98034 0.01921,-4.92068 h -4.93993 c -3.243019,0 -4.94013,0.0257 -4.940498,0.0748 -2.65e-4,0.0412 -5.29e-4,2.23021 -5.29e-4,4.86455 0,2.63434 2.3e-4,4.82363 5.29e-4,4.86509 2.65e-4,0.05 1.654799,0.0689 4.92125,0.0561 l 4.920679,-0.0192 z m 9.953361,-15.00581 0.019,-9.89803 -4.958382,0.0192 -4.958379,0.0192 0.0269,9.84137 c 0.01479,5.41274 0.0422,9.86686 0.0609,9.89802 0.01871,0.0312 2.229281,0.048 4.91246,0.0374 l 4.878509,-0.0192 z m 19.90749,-4.86402 -0.0192,-4.99552 h -4.864546 -4.86455 l -0.0194,4.90197 c -0.0107,2.69609 -0.003,4.94407 0.0164,4.99553 0.0281,0.0735 1.07819,0.0935 4.90319,0.0935 h 4.867416 z m 77.42615,4.93944 c -1.32448,-0.0114 -3.51353,-0.0115 -4.86456,-2e-5 -1.35102,0.0114 -0.26737,0.0208 2.40814,0.0208 2.6755,10e-6 3.78089,-0.009 2.45642,-0.0208 z m -57.36946,-9.99109 0.019,-9.93491 h -4.97708 -4.97709 v -5.01424 -5.01423 h 4.89281 c 4.0363,0 4.90761,-0.0178 4.97736,-0.10188 0.0614,-0.0739 0.0793,-1.43325 0.0653,-4.9581 l -0.0193,-4.85623 -9.78204,-0.065 c -5.38013,-0.0358 -9.86781,-0.0435 -9.97262,-0.0172 l -0.19056,0.0478 0.019,9.97085 0.019,9.97084 4.94886,0.0192 4.94886,0.0192 0.0551,9.89697 c 0.0303,5.44333 0.0703,9.92246 0.0888,9.95363 0.0185,0.0312 2.2459,0.048 4.94966,0.0374 l 4.91594,-0.0192 z m 39.88959,5.00384 c 0.0141,-3.60985 -0.004,-4.95864 -0.0662,-5.034 -0.0906,-0.10922 -2.99206,-0.10338 -14.8461,0.0299 l -5.01423,0.0564 -0.0192,4.85622 c -0.014,3.53248 0.004,4.88408 0.0655,4.95838 0.071,0.0855 1.69241,0.0991 9.97289,0.0832 l 9.8881,-0.019 z m -89.807123,-9.94713 c 0.01299,-3.2803 -0.006,-4.89727 -0.0593,-4.99659 -0.0873,-0.16317 1.483148,-0.15983 -14.759391,-0.0314 l -4.99553,0.0395 v 4.89521 4.89521 l 0.16839,0.0326 c 0.0926,0.0179 4.54649,0.0287 9.8975,0.0239 l 9.729099,-0.009 z m -20.131779,-5.11378 0.16892,-0.0453 -0.0192,-4.91182 -0.0192,-4.91181 h -4.90197 -4.90198 l -0.0192,4.9154 -0.0192,4.9154 0.168929,0.0325 c 0.264821,0.051 9.35391,0.0563 9.543081,0.006 z m 99.928612,-14.88204 v -4.90089 l -4.84585,-0.0198 c -2.67414,-0.0109 -4.88777,0.009 -4.93939,0.0455 -0.0732,0.0511 -0.0936,1.1111 -0.0936,4.87079 0,2.64302 0.0225,4.82795 0.0499,4.85539 0.0274,0.0274 2.25016,0.0499 4.93939,0.0499 h 4.8895 z m 19.88908,-0.0203 0.0192,-4.88381 -4.88381,0.0193 -4.8838,0.0192 -0.0194,4.78971 c -0.0107,2.63434 -0.003,4.83206 0.0166,4.88381 0.0285,0.0745 1.0453,0.0901 4.88394,0.0748 l 4.84799,-0.0193 z M 53.906948,119.78167 c 0.014,-3.53989 -0.004,-4.88398 -0.0657,-4.95864 -0.0706,-0.0851 -0.9027,-0.0992 -4.92123,-0.0832 l -4.83623,0.0192 -0.0194,4.86456 c -0.0107,2.6755 -0.003,4.90689 0.0166,4.95864 0.0285,0.0745 1.05278,0.0901 4.92136,0.0748 l 4.8854,-0.0192 z m 89.769162,-5.13426 c 0.049,-5.3e-4 0.0862,-9.77657 0.0374,-9.82188 -0.0103,-0.01 -2.24143,-0.0348 -4.9581,-0.0561 l -4.93938,-0.0388 -0.0192,-4.956823 -0.0192,-4.9568 -0.16785,-0.0412 c -0.0923,-0.0227 -2.33289,-0.0317 -4.97904,-0.02 -4.17952,0.0184 -4.82049,0.0359 -4.88212,0.13347 -0.0427,0.0677 -0.0714,2.01686 -0.0721,4.90638 -10e-4,4.100663 0.0148,4.815123 0.10873,4.939393 0.0939,0.1242 0.11022,0.85325 0.11226,5.02802 l 0.002,4.88274 5.07035,0.0192 c 3.72555,0.0141 12.56451,0.004 14.70592,-0.0176 z m 20.02004,-14.874873 -0.0192,-4.99552 -4.78971,-0.0207 c -2.63435,-0.0114 -4.86549,-0.002 -4.95811,0.0201 l -0.16838,0.0408 v 4.9255 c 0,2.709023 0.0225,4.947943 0.0499,4.975383 0.0274,0.0275 2.26724,0.0499 4.97735,0.0499 h 4.92744 z m -79.797912,-0.0187 v -4.90197 l -4.958099,-0.0192 -4.958101,-0.0193 v 4.94046 4.940473 l 4.958101,-0.0192 4.958099,-0.0192 z m 30.029802,0.0657 c 0.016,-4.01843 0.002,-4.8506 -0.0832,-4.92123 -0.0747,-0.062 -1.42836,-0.0798 -4.99606,-0.0657 l -4.89365,0.0193 -0.0192,4.92122 -0.0192,4.921223 4.99606,-0.0192 4.99606,-0.0192 z m -60.053502,-5.17351 c 0.13922,-0.10197 0.13828,1.049 0.0121,-14.78076 l -0.0395,-4.958104 h -4.8538 -4.85381 l -0.056,9.849871 c -0.0473,8.321016 -0.04,9.859993 0.047,9.915063 0.0566,0.0358 2.24343,0.0657 4.85962,0.0663 3.68883,7.9e-4 4.78537,-0.0199 4.88442,-0.0924 z m 19.939381,-9.878788 -0.019,-9.897493 -4.81879,-0.01926 c -3.49718,-0.01397 -4.846751,0.0039 -4.920692,0.06529 -0.085,0.07054 -0.10188,1.705494 -0.10188,9.866866 0,5.38027 0.02241,9.804765 0.0499,9.832205 0.0274,0.0274 2.250292,0.0499 4.939671,0.0499 h 4.88977 z m 49.973651,-4.958101 v -4.939392 l -4.89365,-0.01926 c -3.55251,-0.01397 -4.92155,0.0039 -4.99552,0.06529 -0.14122,0.117205 -0.15245,9.639972 -0.0115,9.780894 0.0691,0.06912 1.24253,0.08582 4.99552,0.0711 l 4.90518,-0.01924 z m 29.84272,4.834109 c 0.0312,-0.02914 0.048,-2.223267 0.0374,-4.875826 l -0.0193,-4.822838 h -9.91621 -9.91619 l -0.0194,4.827135 c -0.0107,2.654924 -0.002,4.873421 0.0199,4.929994 0.0332,0.08692 1.56763,0.09446 9.89817,0.04869 5.42238,-0.02979 9.88435,-0.07801 9.91553,-0.107159 z m -59.834016,-4.8154 0.0193,-4.845844 h -4.90252 -4.902515 v 4.81466 c 0,2.648066 0.0227,4.837358 0.0504,4.865097 0.0277,0.02774 2.225209,0.04177 4.883275,0.03118 l 4.83282,-0.01926 z m 10.084566,-5.16391 c 0.0224,-0.09261 0.0315,-2.323759 0.0201,-4.958103 l -0.0207,-4.789714 h -4.976806 -4.97681 l -0.0194,4.864553 c -0.0107,2.675506 -0.003,4.90665 0.0164,4.958104 0.0281,0.07353 1.09277,0.09355 4.97607,0.09355 H 103.84 Z m -20.038172,-4.76268 c 0.014,-3.512104 -0.004,-4.846573 -0.0657,-4.921226 -0.0706,-0.08511 -0.902589,-0.09917 -4.92124,-0.08317 l -4.836231,0.01925 -0.01921,4.921221 -0.01921,4.921219 4.921219,-0.01924 4.921221,-0.01926 z m 79.721982,0.141344 v -4.640036 h -0.1871 c -0.14967,0 -0.18709,-0.03742 -0.18709,-0.187098 v -0.187098 h -4.64004 -4.64004 v 4.827134 4.827132 h 4.82714 4.82713 z m 10.13853,109.602139 c 1e-5,-2.59318 0.009,-3.64317 0.0209,-2.33332 0.0115,1.30986 0.0115,3.43155 -10e-6,4.71488 -0.0115,1.28332 -0.0209,0.21162 -0.0209,-2.38156 z"
       id="path33" />
    <path
       style="fill:#05f48d;stroke-width:0.07483929"
       d="m 34.017858,189.56202 v -5.01319 l 4.99552,-0.0384 c 2.74754,-0.0211 7.19299,-0.0558 9.87879,-0.077 l 4.88326,-0.0385 v -4.82606 -4.82606 h -4.79235 c -4.43813,0 -4.80711,-0.01 -4.99215,-0.13097 -0.18414,-0.1207 -0.57694,-0.13268 -5.0116,-0.15278 -3.29938,-0.0149 -4.81179,0.003 -4.81179,0.0561 0,0.0429 -0.0337,0.0779 -0.0748,0.0779 -0.0498,0 -0.0748,-10.02799 -0.0748,-29.93428 v -29.9343 l 0.16839,-0.0413 c 0.25564,-0.0628 9.76454,-0.007 9.82914,0.0574 0.031,0.031 0.0115,6.7415 -0.0432,14.91225 -0.0547,8.17074 -0.0745,14.88092 -0.0439,14.9115 0.0306,0.0306 2.30944,0.064 5.06415,0.0742 l 5.00857,0.0186 -0.0374,-14.949 c -0.0206,-8.22194 -0.055,-17.16282 -0.0765,-19.86861 l -0.039,-4.91963 -4.95704,-0.0385 c -2.72637,-0.0212 -7.18819,-0.0558 -9.91514,-0.0769 l -4.9581,-0.0384 V 84.830348 c 0,-18.109634 0.0108,-19.939775 0.11838,-19.98104 0.0651,-0.02499 2.3042,-0.04543 4.97576,-0.04543 h 4.85738 l 0.0392,-4.995522 c 0.0216,-2.747538 0.0473,-7.226671 0.0572,-9.95363 l 0.0179,-4.958108 4.90197,-1.1e-5 4.90198,-1e-5 -0.0203,4.873683 c -0.0149,3.574169 0.002,4.901186 0.0653,4.976828 0.0711,0.08568 0.91091,0.103339 4.9597,0.104291 2.68075,6.08e-4 4.91595,0.02773 4.967109,0.06021 0.0722,0.04589 0.0973,1.160201 0.112253,4.994376 l 0.01921,4.935311 h 4.901981 4.901969 l 0.01921,-4.932377 c 0.0136,-3.491911 0.0436,-4.961746 0.102709,-5.032942 0.115861,-0.139595 9.789641,-0.150077 9.92895,-0.01076 0.068,0.06803 0.0898,1.284027 0.0898,5.014765 v 4.92496 l 4.958105,-0.01924 4.9581,-0.01924 0.0374,-4.976812 0.0374,-4.976813 4.90198,-0.03742 4.901966,-0.03742 0.0388,-4.901973 c 0.0213,-2.696085 0.0466,-4.910393 0.0561,-4.920683 0.01,-0.01029 2.27376,-0.01871 5.03159,-0.01871 h 5.01423 v 4.968807 c 0,4.461862 -0.0121,4.973441 -0.11838,5.014232 -0.0651,0.02499 -2.30468,0.04543 -4.97682,0.04543 h -4.85845 v 4.887006 c 0,3.701218 -0.0218,4.908796 -0.0898,4.976812 -0.068,0.06803 -1.28391,0.08981 -5.014236,0.08981 h -4.92442 v 5.014232 5.014231 h -4.97735 -4.977356 l 0.01921,4.920684 0.01921,4.920684 4.939386,-0.01844 c 2.71667,-0.01013 7.17054,-0.03587 9.8975,-0.05719 l 4.958096,-0.03875 v -4.811106 c 0,-3.642188 0.0218,-4.83293 0.0898,-4.900917 0.068,-0.06803 1.28379,-0.08981 5.0137,-0.08981 h 4.92389 l 0.0192,-4.958104 0.0192,-4.958102 4.99181,-0.03742 c 3.85272,-0.02888 5.01315,-0.05877 5.08534,-0.130969 0.0727,-0.07276 1.10048,-0.09373 4.62503,-0.09437 2.49233,-4.49e-4 4.65781,-0.0217 4.81217,-0.04721 l 0.28064,-0.04639 V 59.77987 c 0,-3.773434 -0.0197,-4.780164 -0.0935,-4.781068 -0.0709,-8.73e-4 -0.0696,-0.01631 0.005,-0.06371 0.0802,-0.05082 0.0973,-0.978397 0.0911,-4.941188 -0.006,-4.185443 0.008,-4.894154 0.1018,-4.987939 0.0936,-0.09367 0.82221,-0.109318 5.09145,-0.109318 h 4.98214 l 0.0108,4.396808 c 0.006,2.418244 0.0312,6.872118 0.0561,9.897496 l 0.0454,5.500688 4.90197,0.03742 4.90198,0.03742 0.0192,5.023343 0.0192,5.023344 -9.97285,0.06573 -9.97286,0.06573 v 4.901972 4.901975 l 9.99104,-0.01802 c 5.49508,-0.0099 12.18851,-0.03565 14.87431,-0.0572 l 4.88325,-0.03918 v -4.791294 c 0,-4.294714 0.0126,-4.810493 0.1215,-4.976696 0.11138,-0.169998 0.11605,-1.005504 0.0561,-10.044542 l -0.0654,-9.85912 -4.94774,-0.01924 -4.94774,-0.01924 -0.0471,-0.392376 c -0.0605,-0.503698 -0.0633,-9.359524 -0.003,-9.516647 0.0408,-0.106315 0.55566,-0.11838 5.05165,-0.11838 h 5.00622 l 10e-4,4.883263 c 7.9e-4,2.685795 0.028,4.925609 0.0609,4.977364 0.0472,0.07432 1.08124,0.09005 4.91954,0.07484 l 4.85983,-0.01926 0.0192,-4.958102 0.0192,-4.958103 h 5.01369 5.0137 v 14.967852 c 0,8.232321 -0.008,14.975676 -0.0187,14.98523 -0.0103,0.0096 -2.25828,0.03481 -4.99552,0.05613 l -4.97681,0.03876 -0.0193,4.822835 c -0.0106,2.652562 0.01,4.851916 0.0454,4.88746 0.0356,0.03554 2.2366,0.06184 4.89123,0.05844 2.65463,-0.0034 4.88221,0.01516 4.95018,0.04123 0.11399,0.04375 0.12355,0.819229 0.12355,10.02245 0,9.026893 -0.0113,9.979353 -0.11838,10.020463 -0.0651,0.025 -2.30491,0.0454 -4.97735,0.0454 h -4.85897 l 0.0192,4.92067 0.0192,4.92069 4.95811,0.0193 4.9581,0.0192 v 9.98998 9.98997 l -4.9581,0.0192 -4.95811,0.0192 -0.0192,4.92067 -0.0192,4.9207 h 4.85897 c 2.67244,0 4.91224,0.0204 4.97735,0.0454 0.10632,0.0408 0.11838,0.55497 0.11838,5.04365 0,4.48868 -0.0121,5.00285 -0.11838,5.04364 -0.0651,0.025 -2.30468,0.0454 -4.97681,0.0454 h -4.85843 v 4.93796 4.93797 l 0.16838,0.0413 c 0.0926,0.0228 2.3322,0.0318 4.97684,0.0201 l 4.80844,-0.0212 -2e-5,4.9394 -1e-5,4.93939 -4.95811,0.0174 c -2.72696,0.01 -7.202,0.0355 -9.94453,0.0577 l -4.98642,0.0403 -0.0559,9.95207 -0.0559,9.95208 -4.94871,1e-5 h -4.94885 l -0.0167,-4.88327 c -0.009,-2.6858 -0.0429,-7.15651 -0.0748,-9.93492 l -0.0582,-5.05165 -4.82284,-0.0193 c -2.65256,-0.0106 -4.84675,0.006 -4.87598,0.0374 -0.0292,0.0312 -0.0775,4.51056 -0.10737,9.95418 l -0.0542,9.8975 h -5.00417 -5.00417 l -0.0192,-4.9581 -0.0192,-4.95811 -4.9207,-0.0192 -4.92067,-0.0192 v 4.85897 c 0,2.67242 -0.0204,4.91223 -0.0454,4.97734 -0.0408,0.1063 -0.55236,0.11838 -5.01424,0.11838 h -4.96878 l -5e-5,-7.50264 c -2e-5,-4.12645 -0.0224,-10.86199 -0.0498,-14.96786 l -0.0497,-7.4652 h -4.92693 -4.92705 l -10e-4,-4.88328 c -5.2e-4,-2.68578 -0.0293,-4.92767 -0.0637,-4.98194 -0.0508,-0.0802 -0.9857,-0.0973 -4.986786,-0.0911 -2.70832,0.004 -4.95289,0.0253 -4.98793,0.047 -0.035,0.0217 -0.0637,4.49968 -0.0637,9.95116 v 9.9118 l 4.95811,0.001 c 2.726956,8e-4 5.004286,0.0304 5.060726,0.0662 0.0866,0.0548 0.0939,1.61844 0.0467,9.9899 l -0.056,9.92491 H 68.920699 34.017628 Z m 39.891301,-5.01632 c 0.0938,-0.0502 3.47594,-0.0759 9.986118,-0.076 h 9.844327 v -4.86335 -4.86335 h -4.81797 c -4.198044,0 -4.829996,-0.0145 -4.911424,-0.11261 -0.0743,-0.0895 -0.082,-2.12699 -0.0376,-9.93933 0.0521,-9.17278 0.0474,-9.83514 -0.0707,-9.95328 -0.116279,-0.11627 -0.526259,-0.12655 -5.05101,-0.12655 h -4.924449 l -0.0657,-9.97233 -0.0657,-9.97249 -4.752289,-0.0207 c -2.613772,-0.0114 -4.827831,-0.002 -4.920152,0.02 l -0.167849,0.0407 -0.01921,4.91939 -0.01921,4.9194 -4.939391,0.0374 -4.93939,0.0374 v 5.01423 5.01423 l 9.93518,-0.0277 9.935191,-0.0277 -0.019,9.98131 -0.019,9.98132 -4.93939,0.0374 -4.93939,0.0374 -0.01939,4.90197 c -0.01069,2.69609 -0.003,4.94407 0.0164,4.99552 0.0462,0.1208 9.6964,0.13797 9.92119,0.0177 z m 59.719781,-14.92939 v -4.90198 h -4.82714 -4.82713 v 4.90198 4.90197 h 4.82713 4.82714 z m 30.01547,-4.97945 c 0.14085,-0.0754 0.14476,-0.20951 0.14476,-4.97147 0,-4.48872 -0.0104,-4.90443 -0.12607,-5.02006 -0.11721,-0.11721 -0.82341,-0.12416 -10.04718,-0.0989 l -9.9211,0.0272 -0.0192,-4.87092 -0.0192,-4.87092 -7.42093,-0.0498 c -4.08151,-0.0274 -10.78313,-0.0498 -14.89247,-0.0498 h -7.47154 v -5.01424 -5.01423 h 4.93023 c 4.06788,0 4.94501,-0.0178 5.01478,-0.10188 0.0614,-0.0739 0.0793,-1.43325 0.0653,-4.9581 l -0.0193,-4.85622 -9.93138,-0.0655 c -5.46226,-0.036 -9.98348,-0.0455 -10.04717,-0.0211 -0.10291,0.0395 -0.11581,0.60274 -0.11581,5.06102 v 5.01658 h -4.864536 -4.86455 v 4.90197 4.90198 h 4.89755 c 3.184306,0 4.913736,0.0262 4.943806,0.0748 0.0301,0.0487 1.77188,0.0748 4.98096,0.0748 h 4.9347 l 0.019,9.93491 0.019,9.93492 h 4.97681 4.97681 l 0.0374,-4.97682 0.0374,-4.97681 h 4.97681 4.97682 l 0.0374,4.93939 0.0374,4.9394 9.9162,0.0799 c 14.18877,0.11433 19.66393,0.12253 19.83733,0.0297 z m -109.737482,-4.99289 0.0192,-4.9581 h -4.93192 c -3.88139,0 -4.93761,0.0199 -4.95863,0.0935 -0.0147,0.0515 -0.0173,2.29126 -0.006,4.97735 l 0.0208,4.8838 4.91858,-0.0192 4.91859,-0.0192 0.0192,-4.95811 z m 109.436922,-15.25042 0.2208,-0.11419 v -4.71295 -4.71295 h -4.82713 -4.82714 v 4.82713 4.82714 h 4.60634 c 3.9826,0 4.63623,-0.0155 4.82713,-0.11418 z m -9.52647,-14.62084 c 0.014,-3.55252 -0.004,-4.92157 -0.0653,-4.99552 -0.11683,-0.14077 -9.78957,-0.15252 -9.93003,-0.0121 -0.068,0.068 -0.0898,1.27283 -0.0898,4.96434 0,2.681 0.0227,4.89722 0.0504,4.92496 0.0277,0.0277 2.29255,0.0418 5.03294,0.0312 l 4.98253,-0.0192 z m 19.75757,4.86904 c 0.0743,-0.0472 0.09,-1.08872 0.0748,-4.95695 l -0.0192,-4.89723 h -4.9394 -4.93939 l -0.0193,4.89723 c -0.0152,3.86823 8e-4,4.90977 0.0748,4.95695 0.0518,0.0329 2.24947,0.0597 4.88381,0.0597 2.63435,0 4.83207,-0.0269 4.88382,-0.0597 z m -69.88173,-14.90583 v -4.78971 h -4.827126 -4.82713 v 4.78971 4.78972 h 4.82713 4.827126 z m 40.07644,-10.02846 v -4.97682 l -4.95757,-0.0193 -4.95755,-0.0192 -0.0192,-4.957563 -0.0192,-4.95757 -9.88469,0.0272 c -9.04775,0.025 -9.90479,0.0169 -10.12202,-0.0955 l -0.23732,-0.12273 v -4.787789 -4.787792 h -4.75122 -4.75123 l -0.0385,4.883264 c -0.11187,14.17598 -0.11378,14.90376 -0.0395,14.97804 0.0497,0.0497 0.0759,1.73529 0.0759,4.88806 v 4.81216 h 4.78972 4.78971 v -4.82451 c 0,-4.70474 0.004,-4.82643 0.14576,-4.90251 0.098,-0.0524 1.76081,-0.0717 5.07037,-0.0588 l 4.92459,0.0192 0.0186,4.86455 c 0.0102,2.6755 0.0345,4.90677 0.0539,4.95838 0.0281,0.0747 2.06192,0.09 9.97242,0.0748 l 9.93716,-0.019 z m -59.848972,-5.0292 c 0.068,-0.068 0.0898,-1.26609 0.0898,-4.934053 0,-4.30407 -0.0131,-4.85736 -0.117599,-4.96185 -0.10451,-0.10451 -0.661419,-0.1176 -5.00189,-0.1176 H 74.00672 l -0.0497,-7.240701 c -0.0274,-3.982387 -0.0497,-8.444439 -0.0498,-9.915671 l -3.9e-5,-2.674971 4.958098,-0.01924 4.958101,-0.01924 V 69.855533 64.91614 l -4.957572,-0.01924 -4.957558,-0.01924 -0.01921,4.958636 -0.01921,4.958639 h -4.9394 -4.93939 l -0.01921,-4.958639 -0.01921,-4.958636 -4.957569,0.01924 -4.95756,0.01924 -0.0374,4.976812 -0.0374,4.976814 -4.94845,0.01924 -4.94844,0.01924 -0.056,9.816637 c -0.0537,9.422275 -0.0505,9.820614 0.0795,9.915674 0.10898,0.0797 1.06025,0.099 4.86856,0.099 3.04169,0 4.805,-0.0273 4.93426,-0.0765 l 0.20114,-0.0765 -0.0559,-9.839734 -0.0559,-9.839732 h 4.95843 4.95844 l -0.0559,9.839902 -0.0559,9.839904 0.207309,0.0788 c 0.138221,0.0525 1.818542,0.0762 5.041672,0.071 l 4.834358,-0.008 0.0186,4.92597 c 0.01019,2.709293 0.0344,4.968083 0.0538,5.019533 0.0502,0.13344 9.845141,0.13711 9.97852,0.004 z m 79.850302,-4.905723 0.0192,-4.9581 h 4.90001 4.90002 l 0.0408,-0.16839 c 0.0224,-0.0926 0.0315,-2.340601 0.0201,-4.995525 l -0.0206,-4.827132 -4.89722,-0.01926 c -3.86824,-0.01521 -4.90978,5.29e-4 -4.95696,0.07484 -0.0329,0.05175 -0.0603,2.291564 -0.0609,4.977358 l -0.001,4.883259 h -4.90689 c -3.23933,0 -4.95609,0.0263 -5.05165,0.0775 -0.0796,0.0426 -0.14476,0.14365 -0.14476,0.22452 0,0.14458 -0.0774,0.14705 -4.60796,0.14705 -3.89379,0 -4.62454,0.0166 -4.71488,0.10691 -0.0903,0.0903 -0.10691,0.8211 -0.10691,4.714873 v 4.60797 l 4.69616,0.001 c 2.91654,8e-4 4.73871,0.0288 4.80843,0.074 0.0707,0.0459 1.95687,0.0662 5.08907,0.055 l 4.97681,-0.0179 0.0192,-4.958103 z M 123.77403,84.767261 c 0.11797,-0.08668 0.12589,-0.45353 0.10785,-4.995524 l -0.0195,-4.901972 -5.03294,-0.01924 -5.03294,-0.01924 v 4.971852 c 0,4.672166 0.008,4.973915 0.13097,5.006075 0.072,0.01884 2.28832,0.03813 4.9251,0.04291 3.72868,0.0067 4.8224,-0.01212 4.92144,-0.08487 z M 173.7428,189.67089 c 0,-3.85512 0.02,-4.91173 0.0935,-4.93892 0.0515,-0.019 2.29103,-0.0432 4.97683,-0.0538 l 4.88328,-0.0192 -2e-5,4.95811 -1e-5,4.9581 h -4.97681 -4.97681 z"
       id="path31" />
    <path
       style="fill:#01f072;stroke-width:0.07483929"
       d="m 34.017858,189.5984 c 0,-3.26799 0.0257,-4.97682 0.0748,-4.97682 0.0412,0 0.0748,0.0337 0.0748,0.0748 0,0.0491 1.65111,0.074 4.80842,0.0725 4.10942,-0.002 4.82955,-0.0183 4.9537,-0.11226 0.12428,-0.094 0.85015,-0.10988 5.02378,-0.10988 3.81809,0 4.8927,-0.0203 4.9438,-0.0935 0.0372,-0.0532 0.0369,-4.31485 -6.08e-4,-9.89267 l -0.0659,-9.7991 0.167709,-0.13581 c 0.15816,-0.12807 0.4446,-0.1358 5.025031,-0.1358 h 4.857312 l -0.003,-4.84585 -0.003,-4.84584 4.979239,-0.0192 4.979241,-0.0192 -0.019,9.8606 -0.019,9.86061 -4.857552,0.0193 c -3.436569,0.0136 -4.88696,0.0437 -4.958098,0.10271 -0.0823,0.0683 -0.100552,0.97016 -0.100552,4.96798 0,4.54114 0.009,4.89575 0.130971,5.04433 l 0.130961,0.15981 4.864558,-0.0351 c 2.675501,-0.0193 9.3687,-0.0749 14.873771,-0.12362 l 10.009223,-0.0885 0.0192,-4.91118 0.0192,-4.91117 4.91912,-0.0192 4.919116,-0.0192 0.0465,0.18531 c 0.0256,0.10192 0.0347,4.58122 0.0203,9.95402 l -0.0262,9.76871 H 88.713074 c -12.004151,0 -15.100311,-0.019 -15.130331,-0.0934 -0.0302,-0.0748 -0.0389,-0.0748 -0.0437,0 -0.005,0.0745 -3.02134,0.0935 -14.81785,0.0935 -11.77953,0 -14.819671,-0.0191 -14.849691,-0.0935 -0.0302,-0.0748 -0.0389,-0.0748 -0.0437,0 -0.005,0.0738 -1.03935,0.0935 -4.90789,0.0935 h -4.901994 v -4.97677 z m 79.911222,0.0209 c 0.0112,-2.72578 0.0448,-4.97377 0.0748,-4.99554 0.03,-0.0218 2.23517,-0.0307 4.90039,-0.0198 l 4.84584,0.0198 v 4.85734 c 0,2.67155 0.0204,4.91063 0.0454,4.97574 0.0411,0.10721 -0.42299,0.11838 -4.92068,0.11839 l -4.96611,2e-5 z m 19.98209,0.0448 c 0.0149,-3.60186 -0.003,-4.93861 -0.0653,-5.01425 -0.0711,-0.0857 -0.92426,-0.10313 -5.05324,-0.10313 h -4.96765 v -4.93138 c 0,-4.42774 0.0121,-4.93603 0.11838,-4.97681 0.0651,-0.025 2.30468,-0.0454 4.97682,-0.0454 h 4.85843 v -4.89281 c 0,-4.3176 0.0136,-4.90407 0.11543,-4.98861 0.0938,-0.0778 2.89451,-0.0772 14.94091,0.003 14.4821,0.097 14.82785,0.096 14.9283,-0.0413 0.0857,-0.11722 0.0963,-0.96947 0.0638,-5.12042 -0.0214,-2.73889 -0.0472,-9.42525 -0.0572,-14.85858 l -0.0182,-9.87879 4.92014,-0.0192 4.92014,-0.0192 0.0192,4.92122 0.0192,4.92122 5.03294,0.0192 5.03294,0.0192 v 5.01318 5.01318 l -5.03294,0.0192 -5.03294,0.0192 0.0187,4.97681 c 0.0103,2.73725 0.0271,7.18271 0.0374,9.87879 l 0.0187,4.90197 -4.97682,0.0374 -4.97681,0.0374 -0.0192,4.93238 c -0.0136,3.49191 -0.0436,4.96175 -0.10271,5.03295 -0.12511,0.15074 -9.66097,0.14888 -9.78611,-0.002 -0.0617,-0.0743 -0.0842,-1.45321 -0.0819,-5.01633 l 0.003,-4.91385 -4.95643,0.003 c -3.49781,0.002 -4.97129,0.0272 -5.00693,0.0848 -0.0675,0.10924 -0.17638,19.52917 -0.11065,19.7363 l 0.0514,0.16202 -4.92572,1e-5 -4.92572,2e-5 0.0203,-4.91112 z m -19.96496,-20.01037 v -4.9394 h 4.90197 4.90197 v 4.9394 4.93939 h -4.90197 -4.90197 z m -79.928212,-14.94114 1.4e-4,-9.94293 9.95402,-0.0272 9.95403,-0.0272 -0.0192,4.9292 -0.0192,4.9292 -4.995521,0.0192 -4.99552,0.0192 v 4.97628 4.97629 h -4.821019 c -2.65155,0 -4.87428,0.0204 -4.93939,0.0454 -0.10758,0.0413 -0.11837,-0.86156 -0.11824,-9.89749 z m 89.956672,4.95064 v -4.90252 h 4.8651 4.86509 l -0.0192,4.88326 -0.0192,4.88327 -4.84585,0.0192 -4.84584,0.0193 z m -19.98209,-0.0754 v -4.90197 h 4.86456 4.86455 v 4.90197 4.90198 h -4.86455 -4.86456 z m -20.025381,-4.90038 c -0.0487,-0.0487 -1.82422,-0.0822 -5.01155,-0.0946 l -4.936191,-0.0193 -0.0656,-9.90297 c -0.0392,-5.91879 -0.0383,-9.93028 0.0021,-9.97083 0.0388,-0.0388 2.182601,-0.0765 5.005012,-0.0881 l 4.937149,-0.0202 0.01691,-4.82713 c 0.009,-2.65493 0.0177,-4.86923 0.01871,-4.92068 0.0011,-0.0739 1.046231,-0.0935 4.969485,-0.0935 3.8894,0 4.98181,0.0203 5.03293,0.0935 0.037,0.053 0.0405,2.22021 0.008,4.99552 -0.0968,8.30325 -0.13633,14.47344 -0.0938,14.64772 l 0.0405,0.16632 4.91979,0.0208 c 2.705866,0.0114 4.961856,0.048 5.013316,0.0813 0.0733,0.0474 0.0935,1.11476 0.0935,4.92068 0,2.67308 -0.008,4.86785 -0.0187,4.87728 -0.0247,0.0226 -8.855206,0.12364 -14.989256,0.17151 -3.217715,0.0251 -4.892777,0.0124 -4.942584,-0.0374 z m 59.971391,-5.10937 -0.0192,-4.88326 -14.95176,-0.006 c -9.57502,-0.004 -14.97794,-0.0325 -15.02454,-0.0791 -0.046,-0.046 -0.0657,-1.85835 -0.0535,-4.93303 l 0.0193,-4.86026 4.90921,-0.0374 c 4.00952,-0.0306 4.9319,-0.0562 5.03295,-0.14014 0.11273,-0.0936 0.12372,-0.53292 0.12372,-4.94893 0,-3.78672 -0.0205,-4.86279 -0.0936,-4.92195 -0.0613,-0.0496 -3.52219,-0.0947 -10.02846,-0.13061 l -9.93493,-0.0549 v -4.89174 -4.89174 l 4.9207,-0.0384 c 2.70637,-0.0212 7.1434,-0.0559 9.86006,-0.0771 3.59986,-0.0282 4.99523,-0.0155 5.14527,0.0465 0.15264,0.0631 2.75971,0.0707 10.08407,0.0292 l 9.87819,-0.0559 0.0192,-4.98614 0.0192,-4.98614 4.93939,0.0236 c 2.71667,0.013 9.42695,0.0176 14.91173,0.0103 l 9.97234,-0.0133 v 5.02123 5.02124 l 0.16838,0.0413 c 0.0926,0.0227 2.34903,0.0318 5.01425,0.0201 l 4.84586,-0.0212 -2e-5,9.93492 -1e-5,9.93491 h -4.97681 -4.97681 l -0.001,-4.88325 c -7.9e-4,-2.68581 -0.0213,-4.95893 -0.0461,-5.05138 l -0.0451,-0.16813 -9.92626,-0.019 -9.92626,-0.019 -0.0193,-4.82306 c -0.015,-3.74437 -0.0401,-4.83626 -0.11226,-4.88211 -0.10932,-0.0694 -9.20714,-0.0833 -9.55081,-0.0146 l -0.23387,0.0468 v 4.85095 4.85095 l -0.16779,0.11753 c -0.14846,0.10399 -0.73266,0.11717 -5.07036,0.11438 l -4.90257,-0.003 -0.0192,4.83963 c -0.014,3.51252 0.004,4.86758 0.0653,4.94151 0.0698,0.0841 0.9462,0.10189 5.01036,0.10189 3.20314,0 4.94199,0.0262 4.97207,0.0748 0.0301,0.0487 1.77608,0.0748 4.99357,0.0748 h 4.94731 l -0.0496,7.27812 c -0.0273,4.00296 -0.0497,8.41474 -0.0498,9.80394 v 2.52583 h -4.82654 -4.82659 l -0.0193,-4.88326 z M 34.111408,124.77543 c -0.0735,-0.0297 -0.0935,-1.10948 -0.0935,-5.04628 v -5.00853 l 4.9581,0.0192 4.9581,0.0192 0.0206,4.86456 c 0.0114,2.6755 0.002,4.94032 -0.0201,5.03294 l -0.0408,0.16839 -4.84441,-0.006 c -2.664431,-0.003 -4.886521,-0.0229 -4.937971,-0.0436 z m 20.0031,-0.11882 c -0.0167,-0.0515 -0.0535,-4.52967 -0.0817,-9.9516 l -0.0512,-9.85805 -5.02378,-0.0413 c -2.76307,-0.0227 -7.25492,-0.0489 -9.98188,-0.0582 l -4.95811,-0.0169 1e-5,-4.946643 v -4.94664 l 6.64199,-0.0413 c 3.65309,-0.0227 12.61136,-0.0227 19.907251,7e-5 l 13.265259,0.0414 v 4.92945 4.929433 l 0.18125,0.0826 c 0.131561,0.06 2.8757,0.0646 10.009751,0.0171 l 9.828505,-0.0655 0.0192,-4.887163 c 0.0129,-3.28376 -0.006,-4.935 -0.0588,-5.03295 -0.0761,-0.14217 -0.19802,-0.14577 -4.93994,-0.14577 h -4.861916 v -4.863484 -4.863488 l 4.920696,-0.03852 c 15.221256,-0.119153 14.914346,-0.118727 14.951346,-0.02077 0.0196,0.05203 0.0104,6.779612 -0.0207,14.950192 l -0.0564,14.855603 -14.818176,0.0557 c -8.149996,0.0306 -14.860274,0.0716 -14.911725,0.0912 -0.0735,0.0279 -0.0935,1.07478 -0.0935,4.88748 0,3.67394 -0.0218,4.87373 -0.0898,4.94174 -0.13393,0.13393 -19.73416,0.13022 -19.77772,-0.004 z m 119.637982,-19.9558 c -0.0865,-0.0548 -0.0938,-1.61613 -0.0466,-9.952493 l 0.056,-9.887507 h 4.8489 c 2.6669,0 4.90218,-0.02045 4.96729,-0.04543 0.10758,-0.04128 0.11838,0.866547 0.11838,9.953627 v 9.999063 l -4.92068,-10e-4 c -2.70638,-5.3e-4 -4.96684,-0.0304 -5.02325,-0.0661 z m -29.97035,-9.936273 c -0.0275,-0.0274 -0.0499,-2.267239 -0.0499,-4.977331 v -4.927441 l 5.07036,0.01924 5.07036,0.01924 0.0193,4.855901 c 0.0181,4.557709 0.0112,4.862031 -0.11226,4.955721 -0.10644,0.0808 -1.06714,0.10028 -5.03972,0.1022 -2.69952,0.001 -4.93067,-0.0201 -4.9581,-0.0475 z m -29.81777,-4.966497 0.0193,-4.791874 4.93939,-0.03556 c 2.71667,-0.01955 7.14529,-0.04384 9.84137,-0.05397 l 4.90197,-0.01841 0.0192,4.845844 0.0193,4.845847 h -9.87989 -9.87987 z m 49.22609,4.717037 c 0,-0.0412 0.0842,-0.0748 0.18709,-0.0748 0.10291,0 0.1871,0.0337 0.1871,0.0748 0,0.0412 -0.0842,0.0748 -0.1871,0.0748 -0.1029,0 -0.18709,-0.0337 -0.18709,-0.0748 z m 0,-9.428911 c 0,-0.0407 0.0818,-0.06723 0.1817,-0.05896 0.0999,0.0083 0.1653,0.04157 0.14526,0.074 -0.0527,0.08523 -0.32696,0.07261 -0.32696,-0.01503 z m -124.364183,-0.206637 -4.808419,-0.01982 -2e-5,-9.971786 -10e-6,-9.971783 4.928949,0.02027 c 4.090931,0.01682 4.943361,0.0029 5.013711,-0.08185 0.0608,-0.07324 0.0902,-1.497205 0.104,-5.034501 l 0.0192,-4.932377 4.85814,-0.01926 c 4.25703,-0.01688 4.87977,-0.0051 5.03294,0.09527 l 0.17481,0.114535 v 4.778825 c 0,4.146443 -0.0148,4.791095 -0.11173,4.871551 -0.0967,0.08021 -0.11433,0.760488 -0.13097,5.042105 l -0.0192,4.949378 -4.85755,0.01926 c -3.43657,0.01363 -4.88696,0.04367 -4.9581,0.102711 -0.0823,0.06831 -0.10056,0.975167 -0.10056,4.998715 0,4.964927 -0.009,5.134372 -0.25819,5.076724 -0.0432,-0.01 -2.24237,-0.02707 -4.88701,-0.03797 z m 35.155761,-5.032415 v -4.939929 h 4.93993 4.939929 l -0.01921,4.920683 -0.01921,4.920682 -4.920681,0.01926 -4.920689,0.01926 z m 30.060432,4.739283 c -0.0274,-0.02744 -0.0499,-2.199651 -0.0499,-4.827132 v -4.77724 h 4.82714 4.82713 v 4.827132 4.827135 h -4.77724 c -2.62748,0 -4.79969,-0.02244 -4.82713,-0.04989 z M 83.935658,69.854998 v -4.977347 l 4.958116,0.01924 4.95809,0.01924 0.0207,4.789714 c 0.0114,2.634343 0.002,4.865487 -0.0201,4.958102 l -0.0408,0.168389 h -4.93796 -4.937965 z m 39.889332,4.902509 c -0.0695,-0.0449 -1.95875,-0.07298 -4.9581,-0.07369 l -4.84584,-0.0011 v -4.708794 c 0,-2.589815 -0.0203,-4.761544 -0.045,-4.826065 -0.0486,-0.12657 -1.18564,-0.108621 14.74719,-0.232795 3.80204,-0.02963 4.94912,-0.05971 4.99437,-0.130948 0.0323,-0.05087 0.0592,-4.546356 0.0599,-9.989979 l 0.001,-9.897495 h 4.96721 4.96722 l 0.0657,9.972335 0.0657,9.972334 4.92068,0.01925 4.92069,0.01925 v 4.926508 4.926507 l -7.42148,0.04977 c -10.96004,0.0735 -22.30649,0.06082 -22.4394,-0.02508 z m 49.81802,0.02495 c -0.0274,-0.02744 -0.0499,-2.283846 -0.0499,-5.014233 v -4.964339 h 5.05165 5.05165 v 5.014232 5.014233 h -5.00176 c -2.75097,0 -5.02421,-0.02246 -5.05165,-0.04989 z M 73.952627,64.685501 c -0.025,-0.06511 -0.0454,-2.266873 -0.0454,-4.892809 0,-3.936451 0.01791,-4.78927 0.10187,-4.858983 0.074,-0.06137 1.433261,-0.07927 4.958112,-0.06529 l 4.856221,0.01926 0.01921,4.958102 0.01921,4.958103 h -4.931942 c -4.428231,0 -4.936559,-0.01209 -4.97735,-0.11838 z m 19.954837,-4.839723 0.0192,-4.958102 4.9581,-0.01925 4.958086,-0.01924 V 49.87291 44.896632 h 4.97736 4.97735 l -0.0192,4.958103 -0.0192,4.958102 -4.9581,0.01924 -4.95811,0.01924 v 4.976278 4.976278 h -4.977336 -4.97735 z m 70.031386,0.05613 v -4.827134 h 4.78971 4.78972 v 4.827134 4.827134 h -4.78972 -4.78971 z m 9.42975,0 v -4.677456 h -4.64004 -4.64003 v 4.677456 4.677455 h 4.64003 4.64004 z m -19.558,-5.101545 c -0.0274,-0.02744 -0.0499,-2.267006 -0.0499,-4.976812 v -4.92692 h 4.97681 4.97681 v 4.976812 4.976813 h -4.92692 c -2.70981,0 -4.94937,-0.02245 -4.97681,-0.04989 z"
       id="path29" />
    <path
       style="fill:#00d072;stroke-width:0.07483929"
       d="m 43.989658,189.57969 0.0192,-4.99553 4.89878,-0.0192 c 2.69433,-0.0106 4.92268,-0.0443 4.95189,-0.0748 0.0292,-0.0306 0.0764,-4.4842 0.10488,-9.89695 0.0336,-6.38202 0.0779,-9.85774 0.12614,-9.88795 0.12431,-0.0778 19.59659,-0.16595 19.673528,-0.089 0.0415,0.0415 0.0616,2.03299 0.0501,4.96702 l -0.01929,4.89768 -4.857549,0.0193 c -3.48098,0.0138 -4.886481,0.0433 -4.959649,0.104 -0.106993,0.0888 -0.107352,-0.24698 0.01601,14.8446 0.02151,2.63434 0.02069,4.86549 -0.0021,4.9581 l -0.0411,0.16839 h -9.990071 -9.99015 l 0.0192,-4.99552 z m 29.91754,0.0605 c 0,-2.71423 0.02529,-4.94999 0.0561,-4.96834 0.0309,-0.0183 4.526841,-0.0582 9.99104,-0.0884 l 9.934916,-0.0551 v 5.02341 5.02341 h -9.991045 -9.99104 z m 40.020782,0.0891 c 0.0106,-2.66522 0.0348,-4.88796 0.0538,-4.93941 0.0272,-0.0735 1.06883,-0.0935 4.86408,-0.0935 h 4.82947 v 4.86456 c 0,3.19314 0.0257,4.86455 0.0748,4.86455 0.0412,0 0.0748,0.0337 0.0748,0.0748 0,0.0491 -1.7026,0.0748 -4.9581,0.0748 l -4.9581,2e-5 z m 14.89253,-5.16366 -4.99552,-0.02 v -4.93382 c 0,-4.63483 0.008,-4.93607 0.13097,-4.97095 0.072,-0.0204 4.55116,-0.0605 9.95364,-0.0891 l 9.82264,-0.052 v -4.89325 -4.89326 l 4.99552,0.0192 4.99553,0.0192 v 4.90199 4.90197 l -4.95811,0.0192 c -2.72695,0.0106 -4.96592,0.0274 -4.97547,0.0374 -0.01,0.01 -0.0348,2.25775 -0.0561,4.99499 l -0.0388,4.97681 -4.93939,8e-4 c -2.71667,7.9e-4 -7.18738,-0.008 -9.93492,-0.0192 z m 24.97479,-0.11199 c -0.0198,-0.0517 -0.0272,-2.28313 -0.0166,-4.95864 l 0.0194,-4.86455 h 4.93939 4.93939 v 4.93939 4.9394 l -4.92282,0.0192 c -3.89853,0.0152 -4.93031,0 -4.95879,-0.0748 z m 10.02657,-10.01792 c -0.028,-0.0454 -0.0258,-4.50765 0.005,-9.91621 l 0.0559,-9.83373 h 4.85523 4.85523 v 9.91621 9.9162 h -4.86013 c -3.45924,0 -4.87483,-0.0238 -4.91111,-0.0825 z m -59.82183,-14.60474 c 0.004,-2.56231 0.0309,-4.74294 0.0595,-4.84584 l 0.052,-0.1871 h 4.74892 4.74892 l 0.0193,4.84584 0.0192,4.84585 h -4.82768 -4.82768 l 0.007,-4.65875 z m -20.033902,-5.14465 c -0.0473,-0.0473 -1.86989,-0.0813 -5.010489,-0.0936 l -4.936191,-0.0193 -0.0656,-9.90297 c -0.0396,-5.96998 -0.0385,-9.93012 0.003,-9.97132 0.0657,-0.0657 3.18393,-0.0689 14.860806,-0.0153 l 4.99396,0.0229 0.0395,4.99397 c 0.12437,15.71835 0.12455,14.81337 -0.003,14.94119 -0.10587,0.10588 -0.64059,0.11866 -4.96289,0.11866 -3.106096,0 -4.870896,-0.0267 -4.918537,-0.0743 z m 89.870202,-0.0749 -0.16838,-0.0705 v -4.85199 c 0,-3.67399 0.0218,-4.8738 0.0898,-4.94181 0.068,-0.068 1.28392,-0.0898 5.01424,-0.0898 h 4.92442 v 4.97681 4.97681 h -4.63068 c -2.54687,0 -4.7275,0.016 -4.84584,0.0355 -0.11834,0.0195 -0.29094,0.004 -0.38356,-0.035 z m -139.818342,-4.92118 1.3e-4,-4.92069 h 9.93478 9.93478 l 0.0193,4.8188 c 0.014,3.49718 -0.004,4.84674 -0.0653,4.92068 -0.0705,0.085 -1.71915,0.10189 -9.954181,0.10189 h -9.869619 z m 84.942442,-5.02773 -5.05165,-0.0426 v -4.90198 -4.90197 l 4.90922,-0.0374 c 4.00951,-0.0306 4.93189,-0.0562 5.03294,-0.14014 0.11274,-0.0936 0.12372,-0.53291 0.12372,-4.94893 0,-3.96609 -0.0183,-4.86139 -0.10056,-4.92969 -0.0712,-0.0591 -1.55079,-0.0891 -5.07037,-0.10272 l -4.96979,-0.0192 v -4.97682 -4.97681 l 4.90197,-0.0196 c 3.52349,-0.0141 4.95987,0.004 5.10785,0.0652 0.15224,0.0627 2.77894,0.0703 10.08407,0.0289 l 9.87819,-0.0559 0.0192,-4.98614 0.0192,-4.98613 4.84974,-0.0193 c 3.25796,-0.0129 4.89759,0.006 4.99553,0.0588 0.14221,0.0761 0.14578,0.19862 0.14578,5.01532 v 4.9373 l 4.92068,-0.0192 4.92068,-0.0193 0.0374,-4.93939 0.0374,-4.93939 4.9581,-0.0192 4.95811,-0.0192 v 5.01335 5.01334 l 0.16838,0.0413 c 0.0926,0.0227 2.34903,0.0318 5.01425,0.0201 l 4.84586,-0.0212 -2e-5,9.93492 -10e-6,9.93491 h -4.97681 -4.97681 l -0.001,-4.88326 c -7.9e-4,-2.6858 -0.0213,-4.95892 -0.0461,-5.05138 l -0.0451,-0.16812 -9.92626,-0.019 -9.92626,-0.019 -0.0193,-4.82306 c -0.015,-3.74437 -0.0401,-4.83627 -0.11226,-4.88212 -0.10931,-0.0694 -9.20714,-0.0833 -9.55081,-0.0146 l -0.23386,0.0468 v 4.84604 c 0,3.96593 -0.0183,4.86119 -0.10057,4.9295 -0.0712,0.0591 -1.55079,0.0891 -5.07037,0.10271 l -4.96979,0.0192 -0.0192,4.85622 c -0.014,3.52485 0.004,4.88415 0.0653,4.9581 0.0698,0.084 0.94455,0.10188 4.99981,0.10188 3.7232,0 4.93704,0.0218 5.00507,0.0898 0.068,0.068 0.0895,1.2535 0.0887,4.88326 -8e-4,2.6364 -0.0259,4.83146 -0.0561,4.87791 -0.0662,0.10165 -16.93213,0.17481 -24.8642,0.10786 z m 44.77206,-4.96332 0.0192,-4.88326 4.92068,-0.0192 4.92069,-0.0192 v 4.90251 4.90252 h -4.93995 -4.93993 z M 63.922038,124.63309 c -0.105191,-0.10518 -0.11815,-0.64699 -0.11815,-4.93993 v -4.82179 h -4.8245 c -4.69324,0 -4.8266,-0.004 -4.90197,-0.14476 -0.0511,-0.0955 -0.0775,-1.80007 -0.0775,-5.01219 v -4.86744 l -5.03294,-0.0413 c -2.76812,-0.0227 -7.26409,-0.0489 -9.99105,-0.0582 l -4.95811,-0.0169 1e-5,-4.948513 v -4.94852 l 9.82266,-0.0542 c 6.90802,-0.0381 9.88356,-0.0304 10.02792,0.0258 l 0.20526,0.0799 0.0192,4.88533 0.0192,4.885333 4.86456,0.0186 c 2.675502,0.0102 4.910681,0.036 4.96705,0.0572 0.0564,0.0212 2.295941,0.0547 4.97681,0.0744 2.68088,0.0197 7.122552,0.0534 9.870382,0.0748 l 4.996069,0.039 -0.01929,4.84479 -0.01931,4.84479 -4.920149,0.0192 -4.92016,0.0192 -0.01921,5.0324 -0.01921,5.03241 -4.9148,0.0192 c -4.394261,0.0172 -4.927319,0.007 -5.032938,-0.0989 z m -29.90418,-4.89717 v -4.94046 l 4.92068,0.0192 4.92069,0.0192 v 4.90196 4.90199 l -4.92069,0.0192 -4.92068,0.0192 z M 173.75249,104.70081 c -0.0865,-0.0548 -0.0938,-1.61613 -0.0466,-9.952493 l 0.056,-9.887507 h 4.8489 c 2.6669,0 4.90218,-0.02045 4.96729,-0.04543 0.10758,-0.04128 0.11838,0.866547 0.11838,9.953627 v 9.999063 l -4.92068,-10e-4 c -2.70638,-5.3e-4 -4.96684,-0.0304 -5.02325,-0.0661 z M 93.972744,94.787407 c -0.0614,-0.074 -0.0793,-1.452755 -0.0653,-5.032943 l 0.0192,-4.931074 4.89365,-0.01926 c 3.552506,-0.01397 4.921556,0.0039 4.995526,0.06529 0.084,0.06973 0.10187,0.934466 0.10187,4.934592 0,4.309346 -0.0131,4.863155 -0.11761,4.967645 -0.10447,0.10448 -0.6549,0.11761 -4.930226,0.11761 -3.96844,0 -4.82745,-0.0179 -4.89717,-0.10187 z M 143.80708,89.83709 v -4.977341 l 4.99552,0.01923 4.99553,0.01924 0.0192,4.856223 c 0.014,3.524848 -0.004,4.884155 -0.0653,4.958105 -0.0698,0.0841 -0.94689,0.10188 -5.01478,0.10188 h -4.93018 z M 34.017858,79.809157 v -4.976812 h 4.89281 c 4.08052,0 4.90711,0.01722 4.97895,0.103796 0.10112,0.121846 0.0855,9.599326 -0.0161,9.75628 -0.0474,0.07327 -1.12224,0.09355 -4.9581,0.09355 h -4.89756 z m 39.96418,0.03796 v -4.93993 h 4.93993 4.939929 l -0.01921,4.920681 -0.01921,4.920684 -4.920681,0.01926 -4.920689,0.01926 z m 9.988011,-5.108318 c -0.01971,-0.05145 -0.027,-2.282598 -0.0164,-4.958104 l 0.01939,-4.864553 h 4.939405 4.93939 l 0.0193,4.856223 c 0.014,3.524846 -0.004,4.884156 -0.0653,4.958104 -0.11974,0.14427 -9.780706,0.152453 -9.835784,0.0083 z m 39.947971,-4.864555 0.0192,-4.958102 4.92068,-0.01925 4.92069,-0.01925 v -9.990507 -9.990506 h 4.96748 4.96749 l 0.0559,9.991045 0.0559,9.991044 h 4.93022 4.93021 v 4.948643 4.948643 l -9.94353,-0.05586 c -7.32728,-0.04116 -9.95718,-0.03375 -9.99545,0.02817 -0.0376,0.06077 -1.40812,0.08403 -4.95003,0.08403 h -4.89809 z m 59.62872,4.883263 c 0,-0.04913 -1.67141,-0.07484 -4.86455,-0.07484 h -4.86456 v -4.829481 c 0,-3.795245 0.02,-4.836891 0.0935,-4.864073 0.0515,-0.01902 2.27419,-0.04323 4.93941,-0.05378 l 4.84586,-0.01919 -2e-5,4.958102 c 0,3.255498 -0.0257,4.958102 -0.0748,4.958102 -0.0412,0 -0.0748,-0.03368 -0.0748,-0.07484 z M 44.080718,64.785171 c -0.0197,-0.05145 -0.027,-2.299437 -0.0164,-4.995522 l 0.0194,-4.901973 4.85814,-0.01926 c 4.257021,-0.01688 4.879771,-0.0051 5.032941,0.09527 l 0.174799,0.114535 v 4.783745 4.783745 l -0.16633,0.116503 c -0.14639,0.102534 -0.747849,0.116502 -5.01658,0.116502 -3.81124,0 -4.85791,-0.02004 -4.886,-0.09355 z m 49.826746,-4.939393 0.0192,-4.958102 4.95811,-0.01925 4.958096,-0.01924 v 4.977347 4.977348 h -4.977336 -4.97736 z m -19.832425,0 0.01929,-4.808424 4.808422,-0.01926 4.808418,-0.01926 v 4.827682 4.827684 h -4.82767 -4.82768 z m 79.775471,-5.085329 c -0.068,-0.06802 -0.0898,-1.275594 -0.0898,-4.976813 v -4.887005 h 4.97681 4.97681 v 4.887005 c 0,3.701219 -0.0218,4.908797 -0.0898,4.976813 -0.1298,0.129805 -9.6442,0.129805 -9.77401,0 z m -49.93277,-4.923887 v -4.939931 h 4.93993 4.93994 l -0.0192,4.920683 -0.0192,4.920683 -4.92068,0.01925 -4.92069,0.01925 z"
       id="path27" />
    <path
       style="fill:#00ce52;stroke-width:0.07483929"
       d="m 44.028088,189.69196 c 0.0105,-2.6858 0.0331,-4.92107 0.0501,-4.96726 0.0225,-0.0611 2.70599,-0.0992 9.854,-0.14 9.432492,-0.0538 9.82702,-0.0506 9.922219,0.0796 0.0799,0.10929 0.0992,1.08403 0.0992,5.02327 v 4.88767 l -9.97233,1e-5 -9.97234,2e-5 z m 89.526012,-5.28577 -0.26194,-0.0465 v -4.75127 c 0,-4.45774 0.008,-4.75282 0.13041,-4.77639 0.12272,-0.0236 0.13158,0.25468 0.15026,4.71385 l 0.0198,4.73897 0.0181,-4.73544 0.0181,-4.73544 0.19341,-0.0735 c 0.12132,-0.0461 1.9832,-0.0664 4.99551,-0.0543 l 4.80211,0.0193 v 4.86455 4.86456 l -4.90197,0.009 c -2.69609,0.005 -5.01984,-0.0118 -5.1639,-0.0374 z m -79.429422,-9.9378 c -0.0274,-0.0274 -0.0499,-2.21649 -0.0499,-4.86456 v -4.81466 h 4.86455 4.86456 v 4.86456 4.86455 h -4.81466 c -2.64807,0 -4.83712,-0.0225 -4.86456,-0.0499 z M 173.70234,154.51748 c -0.0197,-0.0514 -0.027,-2.26576 -0.0164,-4.92068 l 0.0194,-4.82714 4.99552,-0.0192 4.99552,-0.0192 v 4.93993 4.93992 h -4.97916 c -3.91437,0 -4.98681,-0.02 -5.01492,-0.0936 z m -89.766682,-4.88273 v -4.9025 h 4.930226 c 4.06812,0 4.94502,0.0178 5.01479,0.10188 0.0614,0.0739 0.0793,1.41377 0.0653,4.88326 l -0.0193,4.78138 -4.99552,0.0192 -4.995515,0.0192 z m -9.87878,-9.91674 v -4.93939 h 4.90197 4.90197 v 4.93939 4.9394 h -4.90197 -4.90197 z m 49.768112,-0.0374 v -4.90197 h 2.49473 c 1.3721,0 5.83439,0.0224 9.91621,0.0498 l 7.42147,0.0498 v 4.80243 4.80244 l -7.42147,0.0498 c -4.08182,0.0274 -8.54411,0.0498 -9.91621,0.0498 h -2.49473 z m 54.89462,-5.05083 -4.86456,-0.0382 -0.0192,-4.92068 -0.0192,-4.92068 h 4.93992 4.93994 v 4.97681 c 0,2.73725 -0.0253,4.96876 -0.0561,4.95892 -0.0309,-0.01 -2.24518,-0.0351 -4.92067,-0.0561 z M 34.017858,119.73592 v -4.94046 l 4.92068,0.0192 4.92069,0.0192 v 4.90196 4.90199 l -4.92069,0.0192 -4.92068,0.0192 z m 99.811192,4.89004 c -0.0277,-0.0277 -0.0504,-2.23323 -0.0504,-4.90108 v -4.85066 l 0.16838,-0.0408 c 0.0926,-0.0224 2.32376,-0.0315 4.9581,-0.0201 l 4.78971,0.0207 v 4.90197 4.90198 l -4.90767,0.0192 c -2.69922,0.0106 -4.93036,-0.003 -4.95811,-0.0312 z m -19.98209,-0.0748 c -0.0277,-0.0277 -0.0504,-2.19605 -0.0504,-4.8185 0,-3.93098 0.0179,-4.78292 0.10187,-4.85263 0.074,-0.0614 1.443,-0.0793 4.99551,-0.0653 l 4.89366,0.0192 v 4.86455 4.86456 l -4.9451,0.0192 c -2.7198,0.0106 -4.96779,-0.003 -4.99553,-0.0312 z m -49.783741,-9.84705 c -0.0199,-0.052 -0.0274,-2.30051 -0.0168,-4.99661 l 0.01939,-4.90196 4.86455,0.0185 c 2.675512,0.0101 7.11278,0.0359 9.860621,0.0572 l 4.996069,0.0387 -0.01929,4.84479 -0.01931,4.84479 -4.976809,0.0564 c -11.41013,0.12927 -14.670509,0.13774 -14.70854,0.0382 z m 79.818701,-4.95919 v -4.90196 h 4.90197 4.90198 v 4.90196 4.90198 h -4.90198 -4.90197 z M 44.046318,99.791787 v -4.90252 h 4.93994 4.93993 l -0.0192,4.88327 -0.0192,4.883263 -4.92068,0.0192 -4.920681,0.0192 z m 49.920176,-5.04775 c -0.0528,-0.0986 -0.072,-1.726692 -0.059,-4.996066 l 0.0192,-4.849741 4.92123,-0.01926 4.921206,-0.01926 -0.0192,4.996059 -0.0192,4.996058 -4.842916,0.0193 c -4.73957,0.0188 -4.8446,0.0161 -4.92124,-0.12707 z m 49.915426,-4.943835 v -4.864555 h 4.90197 4.90198 v 4.864555 4.864555 h -4.90198 -4.90197 z M 34.017838,79.789911 l 2e-5,-4.958641 4.92068,0.01925 4.92069,0.01926 0.0192,4.885402 c 0.0153,3.869071 -2.91e-4,4.892646 -0.0748,4.920205 -0.0517,0.01913 -2.27473,0.04343 -4.93996,0.05399 l -4.845851,0.01918 z M 183.54674,74.757507 c 0,-0.04913 -1.67141,-0.07484 -4.86455,-0.07484 h -4.86456 v -4.829483 c 0,-3.795245 0.02,-4.836891 0.0935,-4.864073 0.0515,-0.01902 2.27419,-0.04323 4.93941,-0.05378 l 4.84586,-0.01919 -2e-5,4.958102 c 0,3.2555 -0.0257,4.958104 -0.0748,4.958104 -0.0412,0 -0.0748,-0.03368 -0.0748,-0.07484 z m -99.485802,-0.04935 c -0.0277,-0.02774 -0.0504,-2.234115 -0.0504,-4.903057 v -4.852622 l 4.883256,0.01925 4.88327,0.01925 v 4.864554 4.864553 l -4.83284,0.01926 c -2.658045,0.01058 -4.855515,-0.0034 -4.883257,-0.03118 z m 49.755022,-5.021011 c 0.0228,-2.747537 0.049,-9.449396 0.0582,-14.893019 l 0.0167,-9.897497 4.92068,2e-6 c 4.37867,1e-6 5.24365,0.02955 4.8366,0.165228 -0.0622,0.02073 -0.061,2.608747 0.004,9.941152 0.0486,5.452221 0.10378,12.110598 0.12254,14.796393 l 0.0341,4.883262 h -5.01735 -5.01735 l 0.0415,-4.995521 z m -39.833656,-9.841366 0.0192,-4.883263 h 4.86456 4.864546 l 0.0193,4.883263 0.0192,4.883264 h -4.903056 -4.90306 z m -19.907265,0 0.01929,-4.808424 4.808422,-0.01926 4.808418,-0.01926 v 4.827682 4.827684 h -4.82767 -4.82768 z m 29.892601,-5.120254 c -0.0275,-0.02744 -0.0499,-2.250168 -0.0499,-4.939393 v -4.8895 h 4.9474 c 4.48064,0 4.94313,0.01117 4.90199,0.11838 -0.025,0.06511 -0.0454,2.287836 -0.0454,4.939393 v 4.821013 h -4.85208 c -2.66866,0 -4.87454,-0.02245 -4.90198,-0.04989 z m 49.90345,-0.04366 c -0.019,-0.05145 -0.0432,-2.274186 -0.0538,-4.939409 l -0.0192,-4.845859 4.96611,1.5e-5 c 4.49769,1.5e-5 4.96182,0.01118 4.92068,0.118396 -0.025,0.06511 -0.0454,2.287836 -0.0454,4.939393 v 4.821013 h -4.8669 c -3.82518,0 -4.87431,-0.02002 -4.9015,-0.09355 z"
       id="path25" />
    <path
       style="fill:#00b764;stroke-width:0.07483929"
       d="m 44.064498,189.61711 0.0192,-4.95811 9.82843,-0.0653 c 7.247309,-0.0482 9.850489,-0.0433 9.91246,0.0187 0.0622,0.0622 -1.1962,0.084 -4.83291,0.084 h -4.91694 v 4.82102 c 0,2.65155 -0.0204,4.87428 -0.0454,4.93939 -0.0408,0.1063 -0.55241,0.11838 -5.01476,0.11838 h -4.96934 z m 89.489602,-5.21092 -0.26194,-0.0465 v -4.75127 c 0,-4.45774 0.008,-4.75282 0.13041,-4.77639 0.12272,-0.0236 0.13158,0.25468 0.15026,4.71385 l 0.0198,4.73897 0.0181,-4.73544 0.0181,-4.73544 0.19341,-0.0735 c 0.12132,-0.0461 1.9832,-0.0664 4.99551,-0.0543 l 4.80211,0.0193 v 4.86455 4.86456 l -4.90197,0.009 c -2.69609,0.005 -5.01984,-0.0118 -5.1639,-0.0374 z M 74.056878,139.71801 v -4.93939 h 4.90197 4.90197 v 4.93939 4.9394 h -4.90197 -4.90197 z m 59.721742,-0.0374 v -4.82713 h 4.93939 4.93939 v 4.82713 4.82714 h -4.93939 -4.93939 z m 44.94099,-5.05083 -4.86456,-0.0382 -0.0192,-4.92068 -0.0192,-4.92068 h 4.93992 4.93994 v 4.97681 c 0,2.73725 -0.0253,4.96876 -0.0561,4.95892 -0.0309,-0.01 -2.24518,-0.0351 -4.92067,-0.0561 z m -44.89056,-10.0038 c -0.0277,-0.0277 -0.0504,-2.23323 -0.0504,-4.90108 v -4.85066 l 0.16838,-0.0408 c 0.0926,-0.0224 2.32376,-0.0315 4.9581,-0.0201 l 4.78971,0.0207 v 4.90197 4.90198 l -4.90767,0.0192 c -2.69922,0.0106 -4.93036,-0.003 -4.95811,-0.0312 z m 10.05287,-14.88108 v -4.90197 h 4.90197 4.90198 v 4.90197 4.90197 h -4.90198 -4.90197 z M 44.046318,99.791787 v -4.90252 h 4.93994 4.93993 l -0.0192,4.88327 -0.0192,4.883263 -4.92068,0.0192 -4.920681,0.0192 z m 49.935986,-39.946009 0.0192,-4.883263 h 4.86456 4.864546 l 0.0193,4.883263 0.0192,4.883264 h -4.903076 -4.90306 z M 133.9717,54.943805 c -0.0274,-5.340718 -0.0658,-9.786172 -0.0854,-9.878786 l -0.0357,-0.168388 h 4.94081 c 3.24399,0 4.94082,0.0257 4.94082,0.07484 0,0.04116 -0.0379,0.07484 -0.0843,0.07484 -0.0624,0 -0.0698,2.506843 -0.0286,9.642301 0.0307,5.303267 0.0327,9.715043 0.004,9.803947 l -0.0513,0.161644 h -4.77549 -4.7755 l -0.0498,-9.710397 z"
       id="path23" />
  </g>
</svg>
